<svg id="svg" xmlns="http://www.w3.org/2000/svg" xmlns:xlink="http://www.w3.org/1999/xlink" width="400" height="187.71566597653555" viewBox="0, 0, 400,187.71566597653555"><g id="svgg"><path id="path0" d="M83.368 3.188 C 83.140 3.236,81.339 3.537,79.365 3.857 C 69.987 5.378,61.939 7.968,53.140 12.296 C 49.115 14.276,47.821 15.031,42.669 18.401 C 35.918 22.817,28.137 29.987,22.493 36.991 C 21.331 38.433,20.142 39.894,19.852 40.237 C 19.561 40.580,19.324 40.983,19.324 41.134 C 19.324 41.285,19.231 41.408,19.117 41.408 C 18.610 41.410,14.661 47.941,11.890 53.360 C -2.654 81.800,-1.198 115.360,15.790 143.216 C 16.873 144.992,17.832 146.508,17.920 146.584 C 18.336 146.940,21.532 151.259,21.532 151.464 C 21.532 151.591,21.781 151.851,22.084 152.041 C 22.388 152.230,22.636 152.490,22.636 152.617 C 22.636 154.567,37.441 167.817,44.444 172.137 C 45.887 173.026,47.130 173.841,47.206 173.947 C 47.635 174.542,53.379 177.395,57.971 179.293 C 59.717 180.015,61.643 180.823,62.250 181.089 C 65.481 182.502,75.232 185.093,79.503 185.673 C 86.031 186.560,99.895 186.850,104.486 186.195 C 104.941 186.130,106.432 185.956,107.798 185.809 C 114.101 185.130,126.840 181.437,131.609 178.906 C 131.874 178.765,133.458 177.993,135.128 177.190 C 139.957 174.868,147.221 170.499,148.380 169.219 C 148.654 168.916,149.049 168.668,149.258 168.668 C 149.467 168.668,149.709 168.482,149.797 168.254 C 149.884 168.026,150.128 167.840,150.338 167.840 C 150.548 167.840,150.875 167.591,151.065 167.288 C 151.254 166.984,151.552 166.736,151.725 166.736 C 151.899 166.736,152.245 166.425,152.494 166.046 C 152.742 165.666,153.079 165.355,153.243 165.355 C 153.406 165.355,153.873 165.014,154.281 164.596 C 155.514 163.334,158.123 160.939,158.265 160.939 C 158.482 160.939,161.215 158.199,161.215 157.981 C 161.215 157.789,162.098 156.816,164.320 154.559 C 164.890 153.980,165.355 153.379,165.355 153.223 C 165.355 153.066,165.604 152.783,165.908 152.593 C 166.211 152.403,166.460 152.092,166.460 151.900 C 166.460 151.709,166.587 151.553,166.743 151.553 C 166.898 151.553,167.143 151.242,167.288 150.863 C 167.432 150.483,167.667 150.173,167.811 150.173 C 167.954 150.173,168.354 149.707,168.700 149.137 C 169.046 148.568,169.398 148.040,169.482 147.964 C 172.182 145.534,179.120 131.537,182.020 122.667 C 189.797 98.880,186.771 69.672,174.410 49.206 L 173.868 48.309 175.892 48.310 C 177.005 48.311,226.487 49.428,285.852 50.794 C 345.217 52.159,395.186 53.277,396.894 53.277 L 400.000 53.278 400.000 44.997 L 400.000 36.715 396.342 36.726 C 394.331 36.732,342.563 37.892,281.302 39.304 C 201.098 41.152,169.841 41.787,169.638 41.570 C 169.484 41.405,169.019 40.750,168.606 40.114 C 168.193 39.478,167.510 38.588,167.088 38.137 C 166.258 37.248,165.807 36.716,164.113 34.629 C 162.100 32.149,152.887 23.232,151.600 22.518 C 151.346 22.378,151.014 22.113,150.863 21.930 C 150.371 21.338,147.036 19.048,146.667 19.048 C 146.469 19.048,146.308 18.943,146.308 18.814 C 146.308 18.686,145.097 17.834,143.616 16.922 C 142.136 16.010,140.304 14.876,139.545 14.402 C 135.730 12.022,127.440 8.486,121.187 6.572 C 115.187 4.735,103.805 2.595,103.583 3.261 C 103.451 3.657,102.139 3.704,102.139 3.313 C 102.139 2.880,87.098 2.944,86.401 3.379 C 85.964 3.652,85.740 3.652,85.304 3.379 C 84.778 3.051,84.261 3.000,83.368 3.188 M106.326 11.011 C 113.223 12.124,120.561 14.006,124.638 15.707 C 124.941 15.834,125.500 16.056,125.880 16.202 C 128.324 17.142,135.699 20.827,137.828 22.174 C 138.831 22.808,140.328 23.746,141.155 24.258 C 141.982 24.771,143.076 25.547,143.586 25.983 C 144.096 26.419,144.607 26.776,144.720 26.776 C 144.834 26.777,145.148 26.994,145.417 27.260 C 145.687 27.526,146.960 28.607,148.247 29.664 C 153.169 33.703,160.900 41.822,160.061 42.070 C 159.745 42.164,118.130 43.096,115.321 43.073 L 114.286 43.064 114.286 38.940 C 114.286 36.488,114.174 34.746,114.010 34.645 C 113.858 34.551,113.734 34.060,113.734 33.555 C 113.734 32.090,112.408 27.903,111.325 25.949 C 110.349 24.187,105.605 19.048,104.955 19.048 C 104.787 19.048,104.191 18.737,103.631 18.357 C 95.506 12.843,81.209 17.137,76.516 26.501 C 74.449 30.625,74.476 30.419,74.235 44.582 C 74.117 51.567,73.890 58.647,73.731 60.317 C 73.572 61.988,73.374 64.099,73.291 65.010 C 73.209 65.921,73.025 67.660,72.884 68.875 C 72.743 70.090,72.498 72.295,72.339 73.775 C 72.180 75.255,71.924 77.616,71.771 79.020 C 71.617 80.424,71.182 84.493,70.803 88.061 C 69.526 100.081,68.997 105.026,68.736 107.384 C 68.593 108.675,68.342 110.973,68.179 112.491 C 68.016 114.010,67.769 116.246,67.630 117.460 C 67.492 118.675,67.301 120.504,67.208 121.526 L 67.038 123.383 65.610 123.246 C 64.825 123.171,63.507 122.988,62.682 122.839 C 60.347 122.416,51.558 122.507,48.423 122.985 C 46.918 123.215,44.929 123.514,44.003 123.649 C 38.900 124.393,28.345 129.206,21.806 133.771 L 19.733 135.218 18.456 132.688 C 17.754 131.297,16.839 129.351,16.424 128.364 C 15.597 126.399,15.034 125.081,14.481 123.810 C 7.749 108.342,8.065 79.916,15.144 64.260 C 15.437 63.610,16.012 62.271,16.420 61.284 C 17.435 58.831,19.967 53.713,20.221 53.600 C 20.335 53.550,20.428 53.352,20.428 53.161 C 20.428 52.136,27.008 43.016,31.178 38.263 C 49.161 17.763,79.651 6.706,106.326 11.011 M99.459 24.635 C 103.029 26.330,105.218 28.992,106.386 33.057 L 106.803 34.507 94.222 34.507 L 81.641 34.507 81.823 33.366 C 82.152 31.309,84.039 28.093,85.714 26.733 C 88.955 24.103,90.852 23.428,94.689 23.540 C 97.061 23.609,97.522 23.715,99.459 24.635 M96.281 46.074 L 96.357 49.965 94.279 49.965 L 92.202 49.965 92.201 46.032 L 92.201 42.098 94.203 42.140 L 96.204 42.182 96.281 46.074 M106.832 46.032 L 106.832 49.965 105.176 49.965 L 103.520 49.965 103.520 46.147 C 103.520 41.704,103.347 42.098,105.291 42.098 L 106.832 42.098 106.832 46.032 M85.024 46.101 L 85.024 49.965 83.230 49.965 L 81.435 49.965 81.435 46.101 L 81.435 42.236 83.230 42.236 L 85.024 42.236 85.024 46.101 M141.477 47.481 C 153.927 47.780,164.324 48.027,164.581 48.029 C 164.839 48.031,165.211 48.332,165.409 48.697 C 165.607 49.062,166.507 50.584,167.408 52.079 C 178.524 70.514,181.951 94.149,176.528 114.976 C 174.198 123.921,173.142 125.734,166.167 132.748 C 157.248 141.717,146.281 147.306,134.990 148.636 C 134.155 148.735,133.006 148.883,132.436 148.966 L 131.401 149.117 131.401 140.143 C 131.401 135.208,131.326 130.974,131.233 130.733 C 131.090 130.359,130.392 130.297,126.310 130.297 L 121.554 130.297 121.213 126.777 C 121.025 124.841,120.693 121.456,120.474 119.255 C 120.256 117.053,119.958 114.010,119.812 112.491 C 119.667 110.973,119.416 108.427,119.254 106.832 C 118.592 100.284,118.412 98.214,118.150 94.134 C 117.999 91.781,117.757 88.799,117.614 87.509 C 117.470 86.218,117.217 83.734,117.052 81.988 C 116.887 80.242,116.636 77.695,116.494 76.329 C 116.353 74.962,116.104 72.478,115.942 70.807 C 115.780 69.137,115.342 64.701,114.967 60.949 C 114.592 57.197,114.286 52.507,114.286 50.528 L 114.286 46.929 116.563 46.933 C 117.816 46.936,129.027 47.182,141.477 47.481 M107.108 57.569 C 107.108 57.651,107.292 59.484,107.517 61.641 C 107.742 63.798,108.060 66.929,108.223 68.599 C 108.386 70.269,108.630 72.692,108.765 73.982 C 108.900 75.273,109.146 77.757,109.311 79.503 C 109.476 81.249,109.728 83.796,109.872 85.162 C 110.015 86.529,110.259 88.920,110.414 90.476 C 111.133 97.670,111.280 99.125,111.523 101.449 C 111.666 102.816,111.857 105.238,111.947 106.832 C 112.037 108.427,112.538 114.008,113.060 119.235 C 113.582 124.462,114.010 129.089,114.010 129.518 L 114.010 130.297 100.016 130.297 L 86.023 130.297 84.074 129.329 C 81.600 128.100,75.499 125.604,74.969 125.604 C 74.120 125.604,74.113 125.739,75.656 112.077 C 75.802 110.787,76.042 108.489,76.190 106.970 C 76.338 105.452,76.579 103.154,76.725 101.863 C 77.125 98.314,77.561 94.279,77.842 91.511 C 78.380 86.215,79.501 75.729,79.629 74.810 C 79.702 74.279,79.833 72.540,79.920 70.945 C 80.007 69.351,80.189 67.115,80.325 65.977 C 80.460 64.838,80.729 62.447,80.921 60.663 L 81.270 57.419 94.189 57.419 C 101.295 57.419,107.108 57.486,107.108 57.569 M217.953 66.836 C 209.404 68.081,206.854 71.799,206.567 83.437 L 206.412 89.717 202.171 89.717 L 197.930 89.717 197.930 93.858 L 197.930 97.999 202.277 97.999 L 206.625 97.999 206.625 124.569 L 206.625 151.139 211.525 151.214 L 216.425 151.289 216.425 124.644 L 216.425 97.999 221.946 97.999 L 227.467 97.999 227.467 93.858 L 227.467 89.717 221.908 89.717 L 216.350 89.717 216.481 84.265 C 216.699 75.272,217.250 74.775,225.880 75.803 L 227.467 75.992 227.467 71.569 L 227.467 67.146 226.241 66.837 C 224.835 66.483,220.378 66.483,217.953 66.836 M85.152 69.355 C 85.076 69.553,85.047 72.693,85.088 76.334 L 85.162 82.954 88.613 82.954 L 92.063 82.954 92.063 76.052 L 92.063 69.151 88.676 69.074 C 86.094 69.014,85.257 69.081,85.152 69.355 M96.470 69.355 C 96.394 69.553,96.365 72.693,96.406 76.334 L 96.480 82.954 99.931 82.954 L 103.382 82.954 103.382 76.052 L 103.382 69.151 99.995 69.074 C 97.412 69.014,96.575 69.081,96.470 69.355 M261.698 88.529 C 248.906 89.898,240.474 97.736,240.446 108.282 L 240.442 110.145 245.371 110.145 L 250.301 110.145 250.451 108.006 C 250.963 100.746,255.666 97.401,265.424 97.356 C 274.988 97.312,278.614 100.248,278.660 108.075 C 278.691 113.187,276.966 114.136,266.115 114.978 C 244.963 116.620,236.909 122.367,237.486 135.404 C 238.265 153.005,262.030 159.059,278.013 145.728 L 279.283 144.669 279.630 145.827 C 281.096 150.722,285.861 152.667,293.444 151.466 L 295.514 151.139 295.591 147.205 L 295.667 143.271 292.657 143.271 C 288.455 143.271,288.915 145.665,288.734 122.870 C 288.563 101.166,288.641 102.073,286.593 98.137 C 282.928 91.092,273.118 87.306,261.698 88.529 M327.260 88.785 C 323.967 89.472,321.051 91.056,318.545 93.518 L 316.356 95.669 316.356 92.693 L 316.356 89.717 311.525 89.717 L 306.694 89.717 306.694 120.497 L 306.694 151.277 311.525 151.277 L 316.356 151.277 316.377 133.954 C 316.388 124.427,316.437 116.384,316.486 116.080 C 316.534 115.776,316.650 114.529,316.743 113.308 C 317.466 103.785,322.381 98.741,331.552 98.109 L 334.300 97.920 334.300 93.128 L 334.300 88.337 331.746 88.359 C 330.342 88.372,328.323 88.563,327.260 88.785 M365.631 88.534 C 349.829 90.718,339.377 106.978,341.735 125.710 C 343.468 139.479,352.081 149.661,364.113 152.165 C 384.171 156.340,400.759 139.461,398.626 117.046 C 396.812 97.984,383.085 86.122,365.631 88.534 M374.122 97.575 C 392.889 101.552,393.846 137.244,375.342 143.062 C 362.442 147.119,351.599 136.814,351.595 120.497 C 351.592 104.543,361.143 94.825,374.122 97.575 M278.423 130.516 C 276.842 139.678,266.515 145.658,255.886 143.566 C 246.308 141.682,244.359 129.638,253.002 125.742 C 256.181 124.309,259.280 123.726,269.068 122.717 C 273.453 122.265,277.546 121.582,278.258 121.183 C 278.866 120.842,278.980 127.289,278.423 130.516 M61.805 130.026 C 69.097 130.973,78.117 134.291,85.852 138.871 C 86.991 139.545,88.109 140.176,88.337 140.273 C 88.565 140.371,90.411 141.691,92.441 143.207 C 97.462 146.959,103.396 150.424,107.716 152.127 C 108.496 152.434,109.665 152.928,110.315 153.224 C 110.964 153.519,111.608 153.761,111.747 153.761 C 111.885 153.761,113.289 154.130,114.867 154.581 C 116.445 155.032,118.233 155.470,118.841 155.554 C 125.492 156.480,134.556 156.426,139.545 155.431 C 141.956 154.950,149.824 152.539,151.244 151.846 C 154.286 150.362,156.781 149.039,158.630 147.931 C 160.522 146.797,162.027 146.098,161.076 146.795 C 160.924 146.907,160.084 147.883,159.209 148.966 C 151.303 158.747,136.095 169.751,125.604 173.282 C 124.465 173.665,123.409 174.071,123.257 174.183 C 122.856 174.481,119.578 175.591,118.288 175.867 C 117.681 175.997,115.338 176.536,113.081 177.065 C 79.934 184.840,45.193 171.733,25.241 143.924 L 23.733 141.823 24.496 141.110 C 32.563 133.569,49.753 128.462,61.805 130.026 M124.224 143.271 C 124.224 146.308,124.168 148.792,124.100 148.792 C 123.002 148.792,115.764 147.124,114.010 146.466 C 113.478 146.267,112.547 145.948,111.939 145.756 C 109.864 145.103,104.091 142.166,101.802 140.600 C 100.545 139.739,99.096 138.746,98.581 138.393 L 97.646 137.750 110.935 137.750 L 124.224 137.750 124.224 143.271 " stroke="none" fill="#000000" fill-rule="evenodd"></path></g></svg>